<?xml version="1.0" encoding="UTF-8"?>
<svg width="25px" height="30px" viewBox="0 0 25 30" version="1.1" xmlns="http://www.w3.org/2000/svg" xmlns:xlink="http://www.w3.org/1999/xlink">
    <!-- Generator: Sketch 51.3 (57544) - http://www.bohemiancoding.com/sketch -->
    <title>Shape</title>
    <desc>Created with Sketch.</desc>
    <defs></defs>
    <g id="Page-1" stroke="none" stroke-width="1" fill="none" fill-rule="evenodd">
        <g id="main-copy" transform="translate(-1150.000000, -490.000000)" fill="#FFFFFF" fill-rule="nonzero">
            <g id="Group-4-Copy-2" transform="translate(1120.000000, 456.000000)">
                <g id="76808" transform="translate(30.000000, 20.000000)">
                    <path d="M19.0290555,20.7459579 L23.3854775,20.7459579 C24.2756665,20.7459579 25,20.0091965 25,19.1037338 L25,15.6422241 C25,14.7367614 24.2756665,14 23.3854775,14 L19.0290555,14 L1.61452248,14 C0.724333496,14 0,14.7367614 0,15.6422241 L0,19.1037338 C0,20.0091965 0.724333496,20.7459579 1.61452248,20.7459579 L10.8990542,20.7459579 L10.8990542,21.5642334 L1.61452248,21.5642334 C0.724333496,21.5642334 0,22.3009948 0,23.2064574 L0,26.6679672 C0,27.5734298 0.724333496,28.3101912 1.61452248,28.3101912 L10.8990542,28.3101912 L10.8990542,29.1283174 L1.61452248,29.1283174 C0.724333496,29.1283174 0,29.8650789 0,30.7705415 L0,34.2320512 C0,35.1375139 0.724333496,35.8742753 1.61452248,35.8742753 L10.8990542,35.8742753 L10.8990542,37.6298128 C10.2281467,37.911081 9.66981547,38.4139002 9.31153826,39.0483958 L0.747670684,39.0483958 C0.342425541,39.0483958 0.0137968285,39.3825138 0.0137968285,39.7948613 L0.0137968285,41.5863785 C0.0137968285,41.998726 0.342425541,42.332844 0.747670684,42.332844 L9.31153826,42.332844 C9.87324531,43.3278825 10.927822,44 12.1344574,44 C13.3410928,44 14.3956696,43.3278825 14.9572298,42.332844 L24.2661261,42.332844 C24.6713713,42.332844 25,41.998726 25,41.5863785 L25,39.7948613 C25,39.3825138 24.6713713,39.0483958 24.2661261,39.0483958 L14.9572298,39.0483958 C14.6165656,38.4449531 14.0949281,37.9609449 13.4676127,37.6731078 L13.4676127,35.8742753 L19.0290555,35.8742753 L23.3854775,35.8742753 C24.2756665,35.8742753 25,35.1375139 25,34.2320512 L25,30.7705415 C25,29.8650789 24.2756665,29.1283174 23.3854775,29.1283174 L19.0290555,29.1283174 L13.4676127,29.1283174 L13.4676127,28.3101912 L19.0290555,28.3101912 L23.3854775,28.3101912 C24.2756665,28.3101912 25,27.5734298 25,26.6679672 L25,23.2064574 C25,22.3009948 24.2756665,21.5642334 23.3854775,21.5642334 L19.0290555,21.5642334 L13.4676127,21.5642334 L13.4676127,20.7459579 L19.0290555,20.7459579 Z M23.5322523,15.6422241 L23.5322523,19.1037338 C23.5322523,19.1861436 23.4663504,19.2530269 23.3854775,19.2530269 L19.7629294,19.2530269 L19.7629294,15.492931 L23.3854775,15.492931 C23.4663504,15.492931 23.5322523,15.5598143 23.5322523,15.6422241 Z M23.5322523,30.7705415 L23.5322523,34.2320512 C23.5322523,34.314461 23.4663504,34.3813443 23.3854775,34.3813443 L19.7629294,34.3813443 L19.7629294,30.6212484 L23.3854775,30.6212484 C23.4663504,30.6212484 23.5322523,30.6881317 23.5322523,30.7705415 Z M23.5322523,23.2064574 L23.5322523,26.6679672 C23.5322523,26.750377 23.4663504,26.8172603 23.3854775,26.8172603 L19.7629294,26.8172603 L19.7629294,23.0571643 L23.3854775,23.0571643 C23.4663504,23.0571643 23.5322523,23.1240476 23.5322523,23.2064574 Z" id="Shape"></path>
                </g>
            </g>
        </g>
    </g>
</svg>